<mxfile host="app.diagrams.net" agent="Mozilla/5.0 (Windows NT 10.0; Win64; x64) AppleWebKit/537.36 (KHTML, like Gecko) Chrome/136.0.0.0 Safari/537.36 Edg/136.0.0.0" version="27.0.6">
  <diagram id="R2lEEEUBdFMjLlhIrx00" name="Page-1">
    <mxGraphModel dx="1477" dy="771" grid="1" gridSize="10" guides="1" tooltips="1" connect="1" arrows="1" fold="1" page="1" pageScale="1" pageWidth="850" pageHeight="1100" math="0" shadow="0" extFonts="Permanent Marker^https://fonts.googleapis.com/css?family=Permanent+Marker">
      <root>
        <mxCell id="0" />
        <mxCell id="1" parent="0" />
        <mxCell id="TivQvbE9Mrv6dux7sMh1-2" value="" style="ellipse;whiteSpace=wrap;html=1;aspect=fixed;fontFamily=Times New Roman;" vertex="1" parent="1">
          <mxGeometry x="325" y="335" width="10" height="10" as="geometry" />
        </mxCell>
        <mxCell id="TivQvbE9Mrv6dux7sMh1-3" style="edgeStyle=orthogonalEdgeStyle;rounded=0;orthogonalLoop=1;jettySize=auto;html=1;exitX=0.5;exitY=1;exitDx=0;exitDy=0;endArrow=none;startFill=0;" edge="1" parent="1" source="TivQvbE9Mrv6dux7sMh1-4">
          <mxGeometry relative="1" as="geometry">
            <mxPoint x="354.9772727272725" y="415" as="targetPoint" />
          </mxGeometry>
        </mxCell>
        <mxCell id="TivQvbE9Mrv6dux7sMh1-4" value="&lt;font&gt;Asta&lt;/font&gt;" style="whiteSpace=wrap;html=1;align=center;fontFamily=Times New Roman;" vertex="1" parent="1">
          <mxGeometry x="295" y="365" width="120" height="40" as="geometry" />
        </mxCell>
        <mxCell id="TivQvbE9Mrv6dux7sMh1-5" value="&lt;font&gt;Importo&lt;/font&gt;&lt;div&gt;&lt;font&gt;Offerta max&lt;/font&gt;&lt;/div&gt;" style="text;html=1;align=center;verticalAlign=middle;resizable=0;points=[];autosize=1;strokeColor=none;fillColor=none;fontFamily=Times New Roman;fontSize=12;fontColor=default;labelBackgroundColor=default;" vertex="1" parent="1">
          <mxGeometry x="260" y="433" width="80" height="40" as="geometry" />
        </mxCell>
        <mxCell id="TivQvbE9Mrv6dux7sMh1-6" style="edgeStyle=orthogonalEdgeStyle;rounded=0;orthogonalLoop=1;jettySize=auto;html=1;exitX=0.5;exitY=0;exitDx=0;exitDy=0;entryX=0.25;entryY=1;entryDx=0;entryDy=0;endArrow=none;startFill=0;fontFamily=Times New Roman;" edge="1" parent="1" source="TivQvbE9Mrv6dux7sMh1-7">
          <mxGeometry relative="1" as="geometry">
            <mxPoint x="355" y="410" as="targetPoint" />
          </mxGeometry>
        </mxCell>
        <mxCell id="TivQvbE9Mrv6dux7sMh1-7" value="" style="ellipse;whiteSpace=wrap;html=1;aspect=fixed;fontFamily=Times New Roman;" vertex="1" parent="1">
          <mxGeometry x="350" y="425" width="10" height="10" as="geometry" />
        </mxCell>
        <mxCell id="TivQvbE9Mrv6dux7sMh1-8" value="" style="ellipse;whiteSpace=wrap;html=1;aspect=fixed;fontFamily=Times New Roman;" vertex="1" parent="1">
          <mxGeometry x="395" y="425" width="10" height="10" as="geometry" />
        </mxCell>
        <mxCell id="TivQvbE9Mrv6dux7sMh1-9" value="" style="ellipse;whiteSpace=wrap;html=1;aspect=fixed;fontFamily=Times New Roman;" vertex="1" parent="1">
          <mxGeometry x="305" y="425" width="10" height="10" as="geometry" />
        </mxCell>
        <mxCell id="TivQvbE9Mrv6dux7sMh1-10" value="&lt;font&gt;Numero&lt;br&gt;Offerte&lt;/font&gt;" style="text;html=1;align=center;verticalAlign=middle;resizable=0;points=[];autosize=1;strokeColor=none;fillColor=none;fontFamily=Times New Roman;fontSize=12;fontColor=default;labelBackgroundColor=default;" vertex="1" parent="1">
          <mxGeometry x="325" y="430" width="60" height="40" as="geometry" />
        </mxCell>
        <mxCell id="TivQvbE9Mrv6dux7sMh1-11" value="&lt;font&gt;Tempo&lt;/font&gt;&lt;div&gt;&lt;font&gt;Mancante&lt;/font&gt;&lt;/div&gt;" style="text;html=1;align=center;verticalAlign=middle;resizable=0;points=[];autosize=1;strokeColor=none;fillColor=none;fontFamily=Times New Roman;fontSize=12;fontColor=default;labelBackgroundColor=default;" vertex="1" parent="1">
          <mxGeometry x="375" y="430" width="70" height="40" as="geometry" />
        </mxCell>
        <mxCell id="TivQvbE9Mrv6dux7sMh1-32" value="&lt;font&gt;(1,n)&lt;/font&gt;" style="text;html=1;align=center;verticalAlign=middle;resizable=0;points=[];autosize=1;strokeColor=none;fillColor=none;fontFamily=Times New Roman;fontSize=11;fontColor=default;labelBackgroundColor=default;" vertex="1" parent="1">
          <mxGeometry x="350" y="340" width="40" height="30" as="geometry" />
        </mxCell>
        <mxCell id="TivQvbE9Mrv6dux7sMh1-33" value="" style="ellipse;whiteSpace=wrap;html=1;aspect=fixed;fontFamily=Times New Roman;" vertex="1" parent="1">
          <mxGeometry x="395" y="335" width="10" height="10" as="geometry" />
        </mxCell>
        <mxCell id="TivQvbE9Mrv6dux7sMh1-34" style="edgeStyle=orthogonalEdgeStyle;shape=connector;rounded=0;orthogonalLoop=1;jettySize=auto;html=1;exitX=0.5;exitY=1;exitDx=0;exitDy=0;entryX=0.875;entryY=0.015;entryDx=0;entryDy=0;entryPerimeter=0;strokeColor=default;align=center;verticalAlign=middle;fontFamily=Times New Roman;fontSize=11;fontColor=default;labelBackgroundColor=default;startFill=0;endArrow=none;" edge="1" parent="1" source="TivQvbE9Mrv6dux7sMh1-33" target="TivQvbE9Mrv6dux7sMh1-4">
          <mxGeometry relative="1" as="geometry" />
        </mxCell>
        <mxCell id="TivQvbE9Mrv6dux7sMh1-35" style="edgeStyle=orthogonalEdgeStyle;shape=connector;rounded=0;orthogonalLoop=1;jettySize=auto;html=1;exitX=0.5;exitY=1;exitDx=0;exitDy=0;entryX=0.292;entryY=0;entryDx=0;entryDy=0;entryPerimeter=0;strokeColor=default;align=center;verticalAlign=middle;fontFamily=Times New Roman;fontSize=11;fontColor=default;labelBackgroundColor=default;startFill=0;endArrow=none;" edge="1" parent="1" source="TivQvbE9Mrv6dux7sMh1-2" target="TivQvbE9Mrv6dux7sMh1-4">
          <mxGeometry relative="1" as="geometry" />
        </mxCell>
        <mxCell id="TivQvbE9Mrv6dux7sMh1-36" value="&lt;font&gt;Durata&lt;/font&gt;" style="text;html=1;align=center;verticalAlign=middle;resizable=0;points=[];autosize=1;strokeColor=none;fillColor=none;fontFamily=Times New Roman;fontSize=12;fontColor=default;labelBackgroundColor=default;" vertex="1" parent="1">
          <mxGeometry x="295" y="310" width="60" height="30" as="geometry" />
        </mxCell>
        <mxCell id="TivQvbE9Mrv6dux7sMh1-37" value="&lt;font&gt;Data Inizio&lt;/font&gt;" style="text;html=1;align=center;verticalAlign=middle;resizable=0;points=[];autosize=1;strokeColor=none;fillColor=none;fontFamily=Times New Roman;fontSize=12;fontColor=default;labelBackgroundColor=default;" vertex="1" parent="1">
          <mxGeometry x="360" y="310" width="80" height="30" as="geometry" />
        </mxCell>
        <mxCell id="TivQvbE9Mrv6dux7sMh1-45" style="edgeStyle=orthogonalEdgeStyle;rounded=0;orthogonalLoop=1;jettySize=auto;html=1;exitX=0.5;exitY=0;exitDx=0;exitDy=0;entryX=0.669;entryY=1.015;entryDx=0;entryDy=0;entryPerimeter=0;endArrow=none;startFill=0;fontFamily=Times New Roman;" edge="1" parent="1" source="TivQvbE9Mrv6dux7sMh1-8">
          <mxGeometry relative="1" as="geometry">
            <mxPoint x="400.1399999999999" y="405.5999999999999" as="targetPoint" />
          </mxGeometry>
        </mxCell>
        <mxCell id="TivQvbE9Mrv6dux7sMh1-46" style="edgeStyle=orthogonalEdgeStyle;rounded=0;orthogonalLoop=1;jettySize=auto;html=1;exitX=0.5;exitY=0;exitDx=0;exitDy=0;entryX=0.124;entryY=1.042;entryDx=0;entryDy=0;entryPerimeter=0;endArrow=none;startFill=0;" edge="1" parent="1" source="TivQvbE9Mrv6dux7sMh1-9" target="TivQvbE9Mrv6dux7sMh1-4">
          <mxGeometry relative="1" as="geometry" />
        </mxCell>
        <mxCell id="TivQvbE9Mrv6dux7sMh1-47" value="(0,n)" style="text;html=1;align=center;verticalAlign=middle;resizable=0;points=[];autosize=1;strokeColor=none;fillColor=none;fontFamily=Times New Roman;fontSize=11;fontColor=default;labelBackgroundColor=default;" vertex="1" parent="1">
          <mxGeometry x="350" y="400" width="40" height="30" as="geometry" />
        </mxCell>
        <mxCell id="TivQvbE9Mrv6dux7sMh1-48" value="(0,1)" style="text;html=1;align=center;verticalAlign=middle;resizable=0;points=[];autosize=1;strokeColor=none;fillColor=none;fontFamily=Times New Roman;fontSize=11;fontColor=default;labelBackgroundColor=default;" vertex="1" parent="1">
          <mxGeometry x="305" y="400" width="40" height="30" as="geometry" />
        </mxCell>
        <mxCell id="TivQvbE9Mrv6dux7sMh1-49" value="" style="ellipse;whiteSpace=wrap;html=1;aspect=fixed;fontFamily=Times New Roman;" vertex="1" parent="1">
          <mxGeometry x="360" y="30" width="10" height="10" as="geometry" />
        </mxCell>
        <mxCell id="TivQvbE9Mrv6dux7sMh1-50" style="edgeStyle=orthogonalEdgeStyle;shape=connector;rounded=0;orthogonalLoop=1;jettySize=auto;html=1;exitX=0.5;exitY=1;exitDx=0;exitDy=0;entryX=0.5;entryY=0;entryDx=0;entryDy=0;strokeColor=default;align=center;verticalAlign=middle;fontFamily=Times New Roman;fontSize=11;fontColor=default;labelBackgroundColor=default;startFill=0;endArrow=none;" edge="1" parent="1" source="TivQvbE9Mrv6dux7sMh1-51" target="TivQvbE9Mrv6dux7sMh1-54">
          <mxGeometry relative="1" as="geometry" />
        </mxCell>
        <mxCell id="TivQvbE9Mrv6dux7sMh1-51" value="&lt;font&gt;Offerte&lt;/font&gt;" style="whiteSpace=wrap;html=1;align=center;fontFamily=Times New Roman;" vertex="1" parent="1">
          <mxGeometry x="300" y="64.75999999999999" width="120" height="40" as="geometry" />
        </mxCell>
        <mxCell id="TivQvbE9Mrv6dux7sMh1-52" style="edgeStyle=orthogonalEdgeStyle;shape=connector;rounded=0;orthogonalLoop=1;jettySize=auto;html=1;exitX=0;exitY=0.5;exitDx=0;exitDy=0;entryX=1;entryY=0.5;entryDx=0;entryDy=0;strokeColor=default;align=center;verticalAlign=middle;fontFamily=Times New Roman;fontSize=11;fontColor=default;labelBackgroundColor=default;startFill=0;endArrow=none;" edge="1" parent="1" source="TivQvbE9Mrv6dux7sMh1-53" target="TivQvbE9Mrv6dux7sMh1-51">
          <mxGeometry relative="1" as="geometry" />
        </mxCell>
        <mxCell id="TivQvbE9Mrv6dux7sMh1-53" value="" style="ellipse;whiteSpace=wrap;html=1;aspect=fixed;fontFamily=Times New Roman;" vertex="1" parent="1">
          <mxGeometry x="440" y="79.75999999999999" width="10" height="10" as="geometry" />
        </mxCell>
        <mxCell id="TivQvbE9Mrv6dux7sMh1-54" value="&lt;font&gt;riferimento&lt;/font&gt;" style="shape=rhombus;perimeter=rhombusPerimeter;whiteSpace=wrap;html=1;align=center;fontFamily=Times New Roman;" vertex="1" parent="1">
          <mxGeometry x="300" y="185" width="120" height="60" as="geometry" />
        </mxCell>
        <mxCell id="TivQvbE9Mrv6dux7sMh1-56" style="edgeStyle=orthogonalEdgeStyle;shape=connector;rounded=0;orthogonalLoop=1;jettySize=auto;html=1;exitX=0.5;exitY=1;exitDx=0;exitDy=0;strokeColor=default;align=center;verticalAlign=middle;fontFamily=Times New Roman;fontSize=11;fontColor=default;labelBackgroundColor=default;startFill=0;endArrow=none;entryX=0.542;entryY=-0.01;entryDx=0;entryDy=0;entryPerimeter=0;" edge="1" parent="1" source="TivQvbE9Mrv6dux7sMh1-49" target="TivQvbE9Mrv6dux7sMh1-51">
          <mxGeometry relative="1" as="geometry">
            <mxPoint x="365" y="60" as="targetPoint" />
          </mxGeometry>
        </mxCell>
        <mxCell id="TivQvbE9Mrv6dux7sMh1-57" value="&lt;font&gt;Offerta massima&lt;br&gt;&lt;/font&gt;" style="text;html=1;align=center;verticalAlign=middle;resizable=0;points=[];autosize=1;strokeColor=none;fillColor=none;fontFamily=Times New Roman;fontSize=12;fontColor=default;labelBackgroundColor=default;" vertex="1" parent="1">
          <mxGeometry x="320" width="100" height="30" as="geometry" />
        </mxCell>
        <mxCell id="TivQvbE9Mrv6dux7sMh1-58" value="&lt;font&gt;(0,1)&lt;/font&gt;" style="text;html=1;align=center;verticalAlign=middle;resizable=0;points=[];autosize=1;strokeColor=none;fillColor=none;fontSize=12;fontFamily=Times New Roman;" vertex="1" parent="1">
          <mxGeometry x="360" y="40.39999999999998" width="50" height="30" as="geometry" />
        </mxCell>
        <mxCell id="TivQvbE9Mrv6dux7sMh1-60" value="&lt;font&gt;(1,n)&lt;/font&gt;" style="text;html=1;align=center;verticalAlign=middle;resizable=0;points=[];autosize=1;strokeColor=none;fillColor=none;fontFamily=Times New Roman;fontSize=12;fontColor=default;labelBackgroundColor=default;" vertex="1" parent="1">
          <mxGeometry x="350" y="99.75999999999999" width="50" height="30" as="geometry" />
        </mxCell>
        <mxCell id="TivQvbE9Mrv6dux7sMh1-64" style="edgeStyle=orthogonalEdgeStyle;rounded=0;orthogonalLoop=1;jettySize=auto;html=1;exitX=0.5;exitY=1;exitDx=0;exitDy=0;entryX=0.539;entryY=0.015;entryDx=0;entryDy=0;entryPerimeter=0;endArrow=none;startFill=0;" edge="1" parent="1" source="TivQvbE9Mrv6dux7sMh1-54" target="TivQvbE9Mrv6dux7sMh1-4">
          <mxGeometry relative="1" as="geometry" />
        </mxCell>
        <mxCell id="TivQvbE9Mrv6dux7sMh1-65" value="&lt;span style=&quot;color: rgba(0, 0, 0, 0); font-family: monospace; font-size: 0px; text-align: start;&quot;&gt;%3CmxGraphModel%3E%3Croot%3E%3CmxCell%20id%3D%220%22%2F%3E%3CmxCell%20id%3D%221%22%20parent%3D%220%22%2F%3E%3CmxCell%20id%3D%222%22%20value%3D%22%26lt%3Bfont%26gt%3BValore%26lt%3Bbr%26gt%3BEffettivo%26lt%3B%2Ffont%26gt%3B%22%20style%3D%22text%3Bhtml%3D1%3Balign%3Dcenter%3BverticalAlign%3Dmiddle%3Bresizable%3D0%3Bpoints%3D%5B%5D%3Bautosize%3D1%3BstrokeColor%3Dnone%3BfillColor%3Dnone%3BfontFamily%3DTimes%20New%20Roman%3BfontSize%3D12%3BfontColor%3Ddefault%3BlabelBackgroundColor%3Ddefault%3B%22%20vertex%3D%221%22%20parent%3D%221%22%3E%3CmxGeometry%20x%3D%22-60%22%20y%3D%22369.76%22%20width%3D%2270%22%20height%3D%2240%22%20as%3D%22geometry%22%2F%3E%3C%2FmxCell%3E%3C%2Froot%3E%3C%2FmxGraphModel%3E&lt;/span&gt;" style="text;html=1;align=center;verticalAlign=middle;resizable=0;points=[];autosize=1;strokeColor=none;fillColor=none;" vertex="1" parent="1">
          <mxGeometry x="460" y="78" width="20" height="30" as="geometry" />
        </mxCell>
        <mxCell id="TivQvbE9Mrv6dux7sMh1-66" value="&lt;font&gt;Valore&lt;br&gt;Effettivo&lt;/font&gt;" style="text;html=1;align=center;verticalAlign=middle;resizable=0;points=[];autosize=1;strokeColor=none;fillColor=none;fontFamily=Times New Roman;fontSize=12;fontColor=default;labelBackgroundColor=default;" vertex="1" parent="1">
          <mxGeometry x="450" y="59.76" width="70" height="40" as="geometry" />
        </mxCell>
      </root>
    </mxGraphModel>
  </diagram>
</mxfile>
